<svg width="39" height="18" viewBox="0 0 39 18" fill="none" xmlns="http://www.w3.org/2000/svg"><path d="M772 17c-6 0-9.2-3.4-11.7-6.1-2.3-2.5-4-4.2-7.6-4.2-3.6 0-5.2 1.7-7.5 4.2-2.5 2.7-5.7 6.1-11.7 6.1-6 0-9.2-3.4-11.8-6.1-2.3-2.5-4-4.2-7.5-4.2-3.6 0-5.2 1.7-7.5 4.2-2.6 2.7-5.7 6.1-11.8 6.1-6 0-9.2-3.4-11.7-6.1-2.3-2.5-4-4.2-7.5-4.2-3.7 0-5.3 1.7-7.6 4.2-2.5 2.7-5.7 6.1-11.7 6.1-6 0-9.2-3.4-11.7-6.1-2.3-2.5-4-4.2-7.6-4.2-3.6 0-5.2 1.7-7.5 4.2-2.8 2.7-6 6.1-12 6.1s-9.2-3.4-11.7-6.1c-2.3-2.5-4-4.2-7.6-4.2-3.6 0-5.2 1.7-7.5 4.2-2.5 2.7-5.7 6.1-11.7 6.1-6 0-9.2-3.4-11.8-6.1-2.3-2.5-4-4.2-7.5-4.2-3.6 0-5.2 1.7-7.5 4.2-2.7 2.7-5.9 6.1-11.9 6.1s-9.2-3.4-11.7-6.1c-2.3-2.5-4-4.2-7.6-4.2-3.6 0-5.2 1.7-7.5 4.2-2.5 2.7-5.7 6.1-11.7 6.1-6 0-9.2-3.4-11.8-6.1-2.3-2.5-4-4.2-7.5-4.2-3.6 0-5.2 1.7-7.5 4.2-2.6 2.7-5.9 6.1-11.9 6.1s-9.2-3.4-11.7-6.1c-2.3-2.5-4-4.2-7.6-4.2-3.6 0-5.2 1.7-7.5 4.2-2.5 2.7-5.7 6.1-11.7 6.1-6 0-9.2-3.4-11.8-6.1-2.3-2.5-4-4.2-7.5-4.2-3.6 0-5.2 1.7-7.5 4.2-2.6 2.7-5.7 6.1-11.8 6.1-6 0-9.2-3.4-11.7-6.1-2.3-2.5-4-4.2-7.5-4.2-3.6 0-5.3 1.7-7.6 4.2-2.5 2.7-5.7 6.1-11.7 6.1-6 0-9.2-3.4-11.7-6.1-2.3-2.5-4-4.2-7.6-4.2-3.6 0-5.2 1.7-7.5 4.2-2.5 2.7-5.7 6.1-11.7 6.1-6 0-9.2-3.4-11.8-6.1-2.3-2.5-4-4.2-7.5-4.2-3.6 0-5.2 1.7-7.5 4.2-2.6 2.7-5.7 6.1-11.8 6.1-6 0-9.2-3.4-11.7-6.1-2.3-2.5-4-4.2-7.5-4.2-3.7 0-5.3 1.7-7.5 4.2-2.6 2.7-5.8 6.1-11.8 6.1-6 0-9.2-3.4-11.7-6.1-2.3-2.5-4-4.2-7.6-4.2-3.5 0-5.2 1.7-7.5 4.2-2.5 2.7-5.7 6.1-11.7 6.1-6 0-9.2-3.4-11.8-6.1-2.3-2.5-4-4.2-7.5-4.2-3.6 0-5.2 1.7-7.5 4.2-2.6 2.7-5.7 6.1-11.8 6.1-6 0-9.2-3.4-11.7-6.1-2.3-2.5-4-4.2-7.5-4.2-3.7 0-5.3 1.7-7.5 4.2-2.6 2.7-5.8 6.1-11.8 6.1-6 0-9.2-3.4-11.7-6.1-2.3-2.5-4-4.2-7.6-4.2-3.6 0-5.2 1.7-7.5 4.2-3.1 2.7-6.4 6.1-12.4 6.1s-9.2-3.4-11.7-6.1c-2.3-2.5-4-4.2-7.6-4.2-3.6 0-5.2 1.7-7.5 4.2C48 13.6 44.7 17 38.7 17c-6 0-9.2-3.4-11.8-6.1-2.3-2.5-4-4.2-7.6-4.2-3.6 0-5.2 1.7-7.5 4.2C9.2 13.6 6 17 0 17v-6.7c3.6 0 5.2-1.7 7.5-4.2C10.1 3.4 13.2 0 19.3 0c6 0 9.2 3.4 11.8 6.1 2.3 2.5 4 4.2 7.5 4.2 3.6 0 5.2-1.7 7.5-4.2C48.7 3.4 52 0 58 0c6 0 9.2 3.4 11.8 6.1 2.3 2.5 4 4.2 7.5 4.2 3.6 0 5.2-1.7 7.5-4.2C87.3 3.4 90.4 0 96.5 0c6 0 9.2 3.4 11.7 6.1 2.3 2.5 4 4.2 7.5 4.2 3.7 0 5.3-1.7 7.6-4.2C125.8 3.4 129 0 135 0c6 0 9.2 3.4 11.7 6.1 2.3 2.5 4 4.2 7.6 4.2 3.6 0 5.2-1.7 7.5-4.2 2.5-2.7 5.7-6.1 11.7-6.1 6 0 9.2 3.4 11.8 6.1 2.3 2.5 4 4.2 7.5 4.2 3.6 0 5.2-1.7 7.5-4.2C203 3.4 206 0 212.1 0c6 0 9.2 3.4 11.7 6.1 2.3 2.5 4 4.2 7.5 4.2 3.7 0 5.3-1.7 7.5-4.2 2.6-2.7 5.8-6.1 11.8-6.1 6 0 9.2 3.4 11.7 6.1 2.3 2.5 4 4.2 7.6 4.2 3.5 0 5.2-1.7 7.5-4.2C279.9 3.4 283 0 289 0c6 0 9.2 3.4 11.8 6.1 2.3 2.5 4 4.2 7.5 4.2 3.6 0 5.2-1.7 7.5-4.2 2.6-2.7 5.7-6.1 11.8-6.1 6 0 9.2 3.4 11.7 6.1 2.3 2.5 4 4.2 7.5 4.2 3.7 0 5.3-1.7 7.5-4.2C357 3.4 360.2 0 366.2 0c6 0 9.2 3.4 11.7 6.1 2.3 2.5 4 4.2 7.6 4.2 3.6 0 5.2-1.7 7.5-4.2 2.5-2.7 5.7-6.1 11.7-6.1 6 0 9.2 3.4 11.8 6.1 2.3 2.5 4 4.2 7.5 4.2 3.6 0 5.2-1.7 7.5-4.2 2.6-2.7 5.7-6.1 11.8-6.1 6 0 9.2 3.4 11.7 6.1 2.3 2.5 4 4.2 7.5 4.2 3.7 0 5.3-1.7 7.5-4.2 2.6-2.7 5.8-6.1 11.8-6.1 6 0 9.2 3.4 11.7 6.1 2.3 2.5 4 4.2 7.6 4.2 3.6 0 5.2-1.7 7.5-4.2C511 3.4 514.3 0 520.3 0c6 0 9.2 3.4 11.8 6.1 2.3 2.5 4 4.2 7.5 4.2 3.6 0 5.2-1.7 7.5-4.2 3.4-2.7 6.5-6.1 12.6-6.1 6 0 9.2 3.4 11.8 6.1 2.3 2.5 4 4.2 7.5 4.2 3.6 0 5.2-1.7 7.5-4.2 2.6-2.7 5.7-6.1 11.8-6.1 6 0 9.2 3.4 11.7 6.1 2.3 2.5 4 4.2 7.5 4.2 3.6 0 5.3-1.7 7.6-4.2 2.6-2.7 5.7-6.1 11.8-6.1 6.1 0 9.2 3.4 11.8 6.1 2.3 2.5 4 4.2 7.5 4.2 3.6 0 5.2-1.7 7.5-4.2 2.6-2.7 5.7-6.1 11.8-6.1 6 0 9.2 3.4 11.7 6.1 2.3 2.5 4 4.2 7.5 4.2 3.7 0 5.3-1.7 7.6-4.2C704.8 3.4 708 0 714 0c6 0 9.2 3.4 11.7 6.1 2.3 2.5 4 4.2 7.6 4.2 3.5 0 5.2-1.7 7.5-4.2 2.5-2.7 5.7-6.1 11.7-6.1 6 0 9.2 3.4 11.8 6.1 2.3 2.5 4 4.2 7.5 4.2V17h.2Z" fill="#F1F1F1"/></svg>