<svg>

<symbol id="search" width="18" height="18" viewBox="0 0 18 18" xmlns="http://www.w3.org/2000/svg">
  <path d="M17.6932 16.0568L14.2159 12.5795C15.2386 11.25 15.75 9.61364 15.75 7.875C15.75 3.47727 12.2727 0 7.875 0C3.47727 0 0 3.47727 0 7.875C0 12.2727 3.47727 15.75 7.875 15.75C9.61364 15.75 11.25 15.1364 12.5795 14.2159L16.0568 17.6932C16.2614 17.8977 16.4659 18 16.875 18C17.4886 18 18 17.4886 18 16.875C18 16.6705 17.8977 16.3636 17.6932 16.0568ZM2.25 7.875C2.25 4.80682 4.80682 2.25 7.875 2.25C10.9432 2.25 13.5 4.80682 13.5 7.875C13.5 10.9432 10.9432 13.5 7.875 13.5C4.80682 13.5 2.25 10.9432 2.25 7.875Z"/>
</symbol>

<symbol id="cart" width="21" height="18" viewBox="0 0 21 18" xmlns="http://www.w3.org/2000/svg">
  <path d="M20.1884 6.85716H16.6377L13.1884 0.380944C12.9855 -8.61287e-06 12.5797 -0.0952351 12.1739 0.0952412C11.7681 0.285717 11.6667 0.66667 11.8696 1.04762L15.0145 6.85716H5.7826L8.92753 1.04762C9.13043 0.66667 8.92754 0.285717 8.6232 0.0952412C8.2174 -0.0952351 7.8116 0.0952295 7.6087 0.380944L4.1594 6.85716H0.811583C0.405785 6.85716 0 7.14286 0 7.61905C0 8 0.304336 8.38094 0.811583 8.38094H1.01449L1.92753 11.2381C1.72463 11.3333 1.62317 11.5238 1.62317 11.8095C1.62317 12.1905 1.92753 12.4762 2.33332 12.4762L4.05797 18H16.942L18.6667 12.4762C19.0725 12.4762 19.3768 12.1905 19.3768 11.8095C19.3768 11.619 19.2754 11.3333 19.0725 11.2381L19.9855 8.38094H20.1884C20.5942 8.38094 21 8.09524 21 7.61905C21 7.14286 20.5942 6.85716 20.1884 6.85716ZM15.6232 16.4762H5.07247L3.85506 12.381H16.942L15.6232 16.4762ZM17.2464 10.9524H3.34782L2.53623 8.28573H18.058L17.2464 10.9524Z"/>
</symbol>

<symbol id="interior" width="60" height="62" viewBox="0 0 40 62" preserveAspectRatio="xMidYMin meet" xmlns="http://www.w3.org/2000/svg">
  <g>
    <path d="M15.162 37.7167C14.8627 38.7119 14.9625 39.9061 15.162 41.2994C15.6607 43.8869 16.8577 47.2705 17.556 50.9527H22.6433C23.3415 47.3701 24.5385 43.9864 25.137 41.2994C25.4363 39.9061 25.4363 38.6124 25.137 37.7167C24.8378 36.821 24.2393 36.1244 23.142 35.4277H17.157C15.96 36.1244 15.3615 36.821 15.162 37.7167Z"/>
    <path d="M26.9327 57.6211H13.1671C11.8703 57.6211 10.8728 58.6163 10.8728 59.8105V61.9999H13.1671H26.9327H29.2269V59.8105C29.2269 58.6163 28.2294 57.6211 26.9327 57.6211Z"/>
    <path d="M34.015 2.18943H22.3441C22.3441 0.995194 21.3466 0 20.0499 0C18.7531 0 17.7556 0.995194 17.7556 2.18943H6.08478L0 27.5668C0.798005 27.0693 1.59602 26.5717 2.59352 26.5717C3.99003 26.5717 4.78803 27.3678 5.48629 27.9649C6.18454 28.562 6.68329 28.7611 6.88279 28.7611C7.18204 28.7611 7.68079 28.4625 8.37905 27.9649C9.0773 27.4673 9.97505 26.5717 11.2718 26.5717C12.5686 26.5717 13.4663 27.3678 14.1646 27.9649C14.8628 28.4625 15.3616 28.7611 15.6608 28.7611C15.7606 28.7611 15.9601 28.6616 16.2593 28.562C16.4588 28.4625 16.7581 28.164 17.1571 27.9649C17.6559 27.5668 18.2544 26.9697 19.1521 26.7707C19.4514 26.6712 19.7506 26.6712 20.0499 26.6712C21.3466 26.6712 22.2444 27.4673 22.9426 28.0644C23.6409 28.562 24.1397 28.8606 24.4389 28.8606C24.7382 28.8606 25.2369 28.562 25.8354 28.0644C26.5337 27.4673 27.4314 26.6712 28.7282 26.6712C30.1247 26.6712 30.9227 27.4673 31.621 28.0644C31.9202 28.363 32.2194 28.562 32.5187 28.6616C32.7182 28.7611 32.9177 28.8606 33.1172 28.8606C33.4165 28.8606 33.9152 28.562 34.5137 27.9649C35.212 27.3678 36.1097 26.5717 37.4065 26.5717C38.404 26.5717 39.202 27.0693 40 27.5668L34.015 2.18943Z"/>
    <path d="M23.4415 53.1426H16.5587C15.8604 53.1426 15.4614 53.6402 15.4614 54.2373C15.4614 54.8344 15.9602 55.332 16.5587 55.332H23.4415C24.1397 55.332 24.5387 54.8344 24.5387 54.2373C24.6385 53.6402 24.1397 53.1426 23.4415 53.1426Z"/>
    <path d="M20.0499 28.7598C19.9501 28.7598 19.7506 28.8593 19.4514 28.9588C19.2519 29.0583 19.0524 29.2574 18.8529 29.3569V33.0391H21.1471V29.4564C20.6484 29.0583 20.2494 28.7598 20.0499 28.7598Z"/>
  </g>
</symbol>

<symbol id="toy" width="60" height="60" viewBox="0 0 60 60" xmlns="http://www.w3.org/2000/svg">
  <path d="M0 43.9933L27.4 60V36.5436L0 20.4362V43.9933ZM51.3 12.4832V15C51.3 16.8121 47.8 18.3221 43.6 18.3221C39.3 18.3221 35.9 16.8121 35.9 15V10.8725C36.2 12.5839 39.5 13.9933 43.6 13.9933C47.9 13.9933 51.3 12.4832 51.3 10.6711C51.3 8.85907 47.8 7.349 43.6 7.349C43.3 7.349 42.9 7.349 42.6 7.349L37.6 4.42954V7.55034C37.6 9.36242 34.1 10.8725 29.9 10.8725C27.2 10.8725 24.9 10.2685 23.5 9.36242C23.3 9.16108 23.1 8.95973 22.8 8.75839C22.4 8.3557 22.2 7.95302 22.2 7.55034V4.5302L17.4 7.349C17.1 7.349 16.7 7.349 16.3 7.349C12 7.349 8.60001 8.85907 8.60001 10.6711C8.60001 12.4832 12.1 13.9933 16.3 13.9933C20.4 13.9933 23.7 12.5839 24 10.8725V15C24 16.8121 20.5 18.3221 16.3 18.3221C12 18.3221 8.60001 16.8121 8.60001 15V12.5839L2.60001 16.1074L30.1 32.2148L57.5 16.2081L51.3 12.4832ZM37.7 22.7517C37.7 24.5638 34.2 26.0738 30 26.0738C25.7 26.0738 22.3 24.5638 22.3 22.7517V18.6242C22.6 20.3356 25.9 21.745 30 21.745C34.1 21.745 37.4 20.3356 37.7 18.6242V22.7517ZM32.6 36.745V60L60 43.9933V20.7383L32.6 36.745ZM29.9 6.6443C34.2 6.6443 37.6 5.13423 37.6 3.32215C37.6 1.51007 34.1 0 29.9 0C25.6 0 22.2 1.51007 22.2 3.32215C22.2 5.13423 25.6 6.6443 29.9 6.6443Z"/>
</symbol>

<symbol id="vk-icon" width="28" height="22" viewBox="0 0 28 23" preserveAspectRatio="xMidYMid meet" xmlns="http://www.w3.org/2000/svg">
  <path d="M1 5.83876C1 4.98373 1.5151 4.52268 2.54531 4.45562L6.51515 4.48077C6.78158 4.48077 6.95921 4.60651 7.04802 4.85799C7.45655 6.11538 7.91392 7.20094 8.42014 8.11465C8.92637 9.02835 9.58801 10.0804 10.4051 11.2707C10.4761 11.4216 10.5916 11.497 10.7514 11.497C10.8758 11.497 10.9735 11.4384 11.0445 11.321L11.1244 11.0444L11.1511 6.69379C11.1511 6.39201 11.0756 6.19083 10.9246 6.09024C10.7736 5.98965 10.4939 5.9142 10.0853 5.86391C9.76563 5.81361 9.60577 5.62919 9.60577 5.31065C9.60577 5.24359 9.61465 5.19329 9.63241 5.15976C10.0054 4.07002 11.0711 3.52515 12.8296 3.52515L14.3216 3.5C14.9966 3.5 15.5561 3.65927 16.0001 3.97781C16.4442 4.29635 16.6662 4.79931 16.6662 5.48669V11.1953C16.7906 11.2791 16.906 11.321 17.0126 11.321C17.279 11.321 17.5099 11.1701 17.7053 10.8683C19.6592 8.28649 20.716 6.55966 20.8759 5.68787C20.8759 5.6711 20.8936 5.62919 20.9291 5.56213C21.0535 5.31065 21.2577 5.0927 21.5419 4.90828C21.8261 4.72387 22.0748 4.59813 22.288 4.53107C22.359 4.49753 22.4389 4.48077 22.5277 4.48077H26.6574L26.9239 4.50592C27.2791 4.50592 27.5544 4.66519 27.7498 4.98373C27.8209 5.08432 27.8697 5.19329 27.8964 5.31065C27.923 5.42801 27.9408 5.54536 27.9496 5.66272C27.9585 5.78008 27.963 5.84714 27.963 5.86391V6.03994C27.8386 6.72732 27.5233 7.4608 27.0171 8.24038C26.5109 9.01997 25.867 9.86243 25.0855 10.7678C24.304 11.6731 23.8155 12.2682 23.6201 12.5533C23.4603 12.7544 23.3803 12.9389 23.3803 13.1065C23.3803 13.2406 23.4514 13.3915 23.5935 13.5592L27.4834 18.1864C27.6965 18.4546 27.8031 18.748 27.8031 19.0666C27.8031 19.4522 27.6432 19.7707 27.3235 20.0222C27.0038 20.2737 26.6219 20.4162 26.1779 20.4497L25.7249 20.4749H21.6752C21.6574 20.4749 21.6219 20.479 21.5686 20.4874C21.5153 20.4958 21.4798 20.5 21.462 20.5C21.0712 20.5 20.7071 20.3407 20.3696 20.0222C20.2453 19.8881 19.4105 18.8989 17.8652 17.0547C17.7764 16.9374 17.652 16.8284 17.4922 16.7278C17.4211 16.9961 17.3279 17.3817 17.2124 17.8846C17.097 18.3876 17.0126 18.748 16.9593 18.966L16.8794 19.3935C16.7018 19.9803 16.3287 20.3323 15.7604 20.4497L15.3874 20.4749H12.7763C11.3021 20.4749 9.83224 19.8378 8.36686 18.5636C6.90148 17.2894 5.58264 15.6423 4.41034 13.622C3.23803 11.6018 2.14566 9.25049 1.13322 6.56805C1.04441 6.3501 1 6.107 1 5.83876ZM17.0126 12.3521C16.6396 12.3521 16.3021 12.2557 16.0001 12.0629C15.6982 11.8701 15.5472 11.606 15.5472 11.2707V5.48669C15.5472 5.15138 15.4584 4.91248 15.2808 4.76997C15.1032 4.62747 14.7923 4.55621 14.3483 4.55621L12.8296 4.60651C12.0658 4.60651 11.4886 4.73225 11.0978 4.98373C11.8793 5.3358 12.2701 5.90582 12.2701 6.69379V11.1198C12.2346 11.539 12.0569 11.8868 11.7372 12.1635C11.4175 12.4401 11.0623 12.5784 10.6715 12.5784C10.1386 12.5784 9.7301 12.3353 9.44591 11.8491C8.06046 9.87081 7.03025 7.9931 6.35529 6.21598L6.1155 5.56213L2.57195 5.53698C2.34104 5.53698 2.21227 5.54956 2.18562 5.5747C2.15898 5.59985 2.14566 5.6711 2.14566 5.78846C2.14566 5.93935 2.16342 6.09862 2.19895 6.26627L2.75845 7.67456C4.25048 11.3126 5.87127 14.1795 7.62085 16.2751C9.37042 18.3708 11.0889 19.4186 12.7763 19.4186H15.4406C15.5472 19.4186 15.6271 19.3893 15.6804 19.3306C15.7337 19.2719 15.7781 19.1588 15.8136 18.9911L15.8669 18.7396L16.3732 16.5266C16.5152 16.2249 16.6396 16.0237 16.7462 15.9231C16.9415 15.7387 17.1725 15.6465 17.4389 15.6465C17.8652 15.6465 18.3003 15.8895 18.7444 16.3757L21.0091 19.0917C21.1512 19.3097 21.3022 19.4186 21.462 19.4186H25.8581C26.391 19.4186 26.6574 19.2929 26.6574 19.0414C26.6574 18.9576 26.6308 18.8738 26.5775 18.7899L22.7142 14.2382C22.4123 13.8861 22.2613 13.5089 22.2613 13.1065C22.2613 12.7041 22.4034 12.3185 22.6876 11.9497C22.9185 11.6144 23.367 11.057 24.0331 10.2774C24.6992 9.49778 25.2809 8.76849 25.7782 8.0895C26.2756 7.4105 26.6042 6.79438 26.764 6.24112L26.8439 5.9142C26.8262 5.88067 26.8173 5.82618 26.8173 5.75074C26.8173 5.6753 26.8084 5.61243 26.7907 5.56213H22.6077C22.3412 5.66272 22.1281 5.81361 21.9682 6.01479L21.8084 6.4926C21.3643 7.64941 20.2009 9.43491 18.3181 11.8491C17.9451 12.1844 17.5099 12.3521 17.0126 12.3521Z"/>
</symbol>

<symbol id="youtube-icon" width="28" height="22" viewBox="0 0 24 20" preserveAspectRatio="xMidYMid meet" xmlns="http://www.w3.org/2000/svg">
  <path d="M15.8509 9.29275L10.6145 5.80184C10.5159 5.73691 10.4016 5.69985 10.2837 5.69459C10.1657 5.68934 10.0486 5.71608 9.94459 5.77198C9.84061 5.82789 9.75368 5.91087 9.69302 6.01215C9.63236 6.11343 9.60022 6.22924 9.6 6.34729V13.3291C9.60013 13.4481 9.6327 13.5648 9.69421 13.6667C9.75572 13.7686 9.84384 13.8518 9.94909 13.9073C10.0524 13.9631 10.1691 13.9895 10.2864 13.9837C10.4037 13.978 10.5172 13.9402 10.6145 13.8746L15.8509 10.3837C15.9409 10.3239 16.0148 10.2429 16.0658 10.1477C16.1169 10.0526 16.1436 9.94621 16.1436 9.8382C16.1436 9.73019 16.1169 9.62385 16.0658 9.52868C16.0148 9.43351 15.9409 9.35245 15.8509 9.29275ZM10.9091 12.1073V7.56911L14.3127 9.8382L10.9091 12.1073ZM23.3891 3.54366C23.2942 3.17547 23.1131 2.83511 22.8609 2.55061C22.6086 2.26611 22.2924 2.04561 21.9382 1.90729C18.2182 0.478201 12.2509 0.500019 12 0.500019C11.7491 0.500019 5.78182 0.478201 2.06182 1.90729C1.70764 2.04561 1.3914 2.26611 1.13914 2.55061C0.886889 2.83511 0.705838 3.17547 0.610909 3.54366C0.327273 4.61275 0 6.57638 0 9.8382C0 13.1 0.327273 15.0637 0.610909 16.1327C0.705838 16.5009 0.886889 16.8413 1.13914 17.1258C1.3914 17.4103 1.70764 17.6308 2.06182 17.7691C5.78182 19.1982 11.7491 19.1764 12 19.1764H12.0764C12.8291 19.1764 18.3927 19.1327 21.9382 17.7691C22.2924 17.6308 22.6086 17.4103 22.8609 17.1258C23.1131 16.8413 23.2942 16.5009 23.3891 16.1327C23.6727 15.0637 24 13.1 24 9.8382C24 6.57638 23.6727 4.61275 23.3891 3.54366ZM22.1236 15.8055C22.0807 15.972 21.999 16.1259 21.8853 16.2548C21.7715 16.3838 21.6289 16.484 21.4691 16.5473C17.9782 17.8891 12.0655 17.8673 12 17.8673C11.9345 17.8673 6.02182 17.8891 2.53091 16.5473C2.37107 16.484 2.22846 16.3838 2.11471 16.2548C2.00096 16.1259 1.91929 15.972 1.87636 15.8055C1.61455 14.8018 1.30909 12.9582 1.30909 9.8382C1.30909 6.7182 1.61455 4.87457 1.87636 3.87093C1.91929 3.70445 2.00096 3.55047 2.11471 3.42156C2.22846 3.29264 2.37107 3.19243 2.53091 3.12911C6.02182 1.78729 11.9345 1.80911 12 1.80911C12.0655 1.80911 17.9782 1.78729 21.4691 3.12911C21.6289 3.19243 21.7715 3.29264 21.8853 3.42156C21.999 3.55047 22.0807 3.70445 22.1236 3.87093C22.3855 4.87457 22.6909 6.7182 22.6909 9.8382C22.6909 12.9582 22.3855 14.8018 22.1236 15.8055Z"/>
</symbol>

<symbol id="telegram-icon" width="28" height="22" viewBox="0 0 20 18" preserveAspectRatio="xMidYMid meet" xmlns="http://www.w3.org/2000/svg">
  <path fill-rule="evenodd" clip-rule="evenodd" d="M19.4608 0.652905C19.6393 0.802216 19.7255 1.0349 19.6872 1.26448L17.0611 17.0214C17.0244 17.2411 16.8789 17.4273 16.6745 17.5159C16.47 17.6045 16.2346 17.5833 16.0493 17.4597L8.17082 12.2074C8.01771 12.1054 7.91447 11.9437 7.88624 11.7619C7.858 11.58 7.90738 11.3947 8.02233 11.251L10.633 7.98773L6.27303 10.8944C6.077 11.025 5.82597 11.0407 5.61524 10.9353L0.362931 8.30915C0.127693 8.19153 -0.0146529 7.94488 0.00119976 7.68235C0.0170525 7.41983 0.188044 7.1921 0.435726 7.10364L18.8188 0.538258C19.038 0.459976 19.2822 0.503595 19.4608 0.652905ZM2.32626 7.82275L5.86168 9.59046L13.4231 4.5495C13.6925 4.36994 14.0525 4.41349 14.2712 4.6521C14.49 4.8907 14.5022 5.25314 14.3 5.50591L9.49502 11.5121L15.9328 15.8039L18.2083 2.15058L2.32626 7.82275Z"/>
</symbol>

<symbol id="html-academy" width="27" height="35" viewBox="0 0 27 35" xmlns="http://www.w3.org/2000/svg">
  <path d="M13.6 0H13.5L0 1.4V26.1L13.5 34.1L26.9 26.1V1.4L13.6 0ZM25 12.1L13.5 5.3V5.2H13.4L13.3 5.1V5.2L1.9 12.1V3.1L13.4 1.9L25 3.1V12.1ZM13.4 6.8L24.9 13.5L20.4 16.1L13.3 11.9V13.3L19.2 16.8L18.3 17.3L13.3 14.3V15.7L17.1 18L16.3 18.5L13.3 16.7V18.1L15.2 19.2L13.4 20.3L2 13.6L13.4 6.8ZM1.9 15.1L13.3 21.9V22.9L5.4 18.2V19.6L13.4 24.4V25.5L5.4 20.8V22.2L13.4 27L21.5 22.1V16.9L24.9 14.9V24.9L13.4 31.8L1.9 25V15.1Z"/>
</symbol>

<symbol id="footer-logo" width="102" height="34" viewBox="0 0 102 34" xmlns="http://www.w3.org/2000/svg">
  <path d="M19.2 21.4c0-2.7-.5-5.3-.5-8 0-2.2.4-4.4-.4-6.4l.1-.7c.2-1-3.3-.5-3.8.5-.3.3-.5.6-.4 1l.1.3c-.7 3.1-1.6 6.2-2.6 9.3l-1.3 3.5c-.6-1.1-1.2-2.2-1.6-3.4-1.4-3.4-2.6-6.9-4.3-10.1.2-1.5-3.2-1.4-3.9 0a8.3 8.3 0 0 0-.4 5.1c.3 2 .4 4 .4 6.1 0 4 .4 7.9.4 11.8-.4.4-.5 1 0 1.4l.5.5c1 .7 3.6.1 3.6-1.3 0-4-.3-8.1-.4-12.3v-1.2l.2.4c.6 1.6 1.3 3.2 2.2 4.7 1 1.5 1.3 3 1.8 4.6-.2.2-.3.5-.2.7 0 .2.1.3.3.4.6.5 1.8.3 2.5 0 .3 0 .6-.3.8-.4.3-.2 1-.7.7-1.1v-.3l1-4c.2-1.3.7-2.7 1.2-4l.2 1.9c.2 2.6 0 5 0 7.5l.2 2.5c.1.3.4 1.8.3 2-.8.4-.6 1 .2 1.2 1 .2 2.1 0 2.8-.7 1.2-1 .6-2.8.4-4.2-.5-2.3 0-5 0-7.3ZM27.6 22c0-2-.8-3.8-.8-5.8 0-2.3.2-4.6-.2-6.9 0-.6-4 .1-3.9 1 .3 2.1.2 4.2.2 6.4 0 2 .5 3.9.7 5.9.3 2 0 4.2.1 6.1.1 1 .8 2.7.1 3.6-.4.5 1.5.3 1.6.3.8 0 1.8-.4 2.3-1 .7-.8.2-2.4.1-3.4-.3-2 0-4.1-.2-6.1ZM44 18.8c-2.2-2.8-6-.8-8.7-1.5C34 16.9 34 15 34 13.9a28 28 0 0 0-.3-4c0-1.1 0-2.1.7-3l.8-.2 1.1-.1c1.5-.1 4.6.2 4 2.4-.3 1 3.6.4 4-.5 1.1-4.6-7.4-3.7-9.8-3.1-2.2.6-4.6 1.8-4.8 4.3l.3 3.6c.1 1.4-.2 2.8.3 4.1 1.1 3 5.5 1.6 7.8 1.7 3.8.3 2.7 5.5 2.7 7.9 0 1.2 1.2 3.3.2 4.4-.6.7-2 .7-2.8.8-.8.1-2.2.3-2.7-.5-1-1.4.1-3.8 0-5.3-.2-1-4.2-.1-4 1 .3 2.5-1.4 6 2.4 6.5 2.4.3 5.2-.2 7.5-.9 1.2-.4 2.3-.9 3.2-1.8 1-.9.7-2.3.4-3.5-.5-3 1-6.4-1-8.9ZM61.3 18.6c0-3.8-.7-7.5-.7-11.2 0-2-4-1.3-4 .3 0 3.5.5 7.1.7 10.7v.2l-5.9.2c.2-4.6-.6-9.2-.4-13.8 0-.6-3.9-.1-3.9 1-.2 4.4.6 8.8.5 13.3l-.3 6.4.3 3.2c.1 1 .5 2.3.2 3.3-.2.8 3.6.3 4-.7.4-1.8-.3-4-.5-5.7-.2-1.7 0-3.5.1-5.2 2-.1 4.1-.3 6.1 0l.3 4 .2 3.5c0 1 .1 2.5-.2 3.5-.8 2.1 3.1 2 3.7.4.7-1.9.5-4.2.4-6.1-.2-2.5-.6-5-.6-7.3ZM78.2 23c-.9-2.8-2.4-5.2-3.6-7.8l3-5.9c.7-1.7 1.3-3.7 3-5 .6-.4.6-1-.3-1-.9-.1-2 .2-2.8.7a12.1 12.1 0 0 0-3 4.4l-3 6c0 .1 0 .3-.2.4-.5.3-.8.8-.6 1.3l-2.5 4.6c-.3-5.5-1-11-1.2-16.5 0-1.3-4-.5-3.9 1 .2 6.8 1.2 13.6 1.3 20.5-.3.4-.2.6.1.7 0 1.7 0 3.4-.2 5.2-.5.7.5 1.1 1.1 1.1h.1c.7 0 2.6-.3 2.7-1.4.2-2 .3-4.2.2-6.2a32 32 0 0 0 4.1-5.6c.8 1.5 1.5 3 2 4.6 1 2.7 2.3 5.2 3.1 8 .5 1.7 4.5.6 4-1-1-2.9-2.5-5.3-3.4-8.1ZM101.7 18.4c-.2-.8-1.4-.8-2.3-.8v-1c0-2.7-.2-5.4-.4-8-.2-2.4-1.6-3.2-4-3.1-2.4 0-5.2.5-7.5 1.4a7 7 0 0 0-4.6 5.6c-.5 3 .2 6.2.4 9.2.2 3.5.1 7 .1 10.4 0 .6 4 0 4-1V23l-.2-2.4c1.4-.6 3.7 0 5.1 0 1.1.2 2.2-.1 3.2-.2l.2 6.8c0 1.2.5 3.5-.4 4.5-.4.5 1.5.3 1.6.3.8 0 1.8-.4 2.3-1 1-1 .5-3.8.4-5v-5.7c1-.2 2.3-1 2.1-1.8Zm-14.6-.1-.3-3.7c-.2-2.3.1-5.5 2.3-7 .6-.3 1.7-.2 2.4-.3 1-.2 2-.4 2.8.2 1.2.8 1 3.6 1 4.8l.2 6-1.7.1c-2.3-.2-4.6-.6-6.7-.1ZM24.2 6.7c.5-.1 1-.2 1.5-.5L26 6c.5-.3 1-.8.7-1.4-.5-1.1-.4-2.2-.4-3.4 0-1-1-1.2-1.8-1.2-.7.1-2.2.6-2.2 1.5l.1 3v.4c-.2.2 0 .4 0 .6V6l.4.5a3 3 0 0 0 1.5.3Z"/>
</symbol>

<symbol id="catalog-cart" width="20" height="19" viewBox="0 0 20 19" xmlns="http://www.w3.org/2000/svg">
  <path d="M19.2271 7.23811H15.8454L12.5604 0.402108C12.3672 -9.09136e-06 11.9807 -0.100526 11.5942 0.100532C11.2077 0.301591 11.1111 0.703707 11.3043 1.10582L14.2995 7.23811H5.50723L8.50241 1.10582C8.69565 0.703707 8.50242 0.301591 8.21257 0.100532C7.82609 -0.100526 7.43962 0.10052 7.24638 0.402108L3.96133 7.23811H0.772936C0.386462 7.23811 0 7.53968 0 8.04233C0 8.44445 0.289844 8.84655 0.772936 8.84655H0.966184L1.83574 11.8624C1.64251 11.963 1.54587 12.164 1.54587 12.4656C1.54587 12.8677 1.83574 13.1693 2.22221 13.1693L3.86474 19H16.1353L17.7778 13.1693C18.1643 13.1693 18.4541 12.8677 18.4541 12.4656C18.4541 12.2645 18.3575 11.963 18.1643 11.8624L19.0338 8.84655H19.2271C19.6135 8.84655 20 8.54498 20 8.04233C20 7.53968 19.6135 7.23811 19.2271 7.23811ZM14.8792 17.3915H4.83092L3.67149 13.0688H16.1353L14.8792 17.3915ZM16.4251 11.5609H3.1884L2.41546 8.74605H17.1981L16.4251 11.5609Z"/>
</symbol>

<symbol id="phone-icon" width="25" height="24" viewBox="0 0 25 24" xmlns="http://www.w3.org/2000/svg">
  <g>
    <path d="M17.4395 24C17.0363 24 16.7339 24 16.3306 24C11.3911 23.4074 7.7621 21.1358 5.14113 18.2717C2.52016 15.4075 0.403226 11.7532 0 6.7162C0 6.22237 0 5.82731 0 5.33349C0.100806 4.44461 0.504032 3.85202 1.10887 3.25943C1.71371 2.56808 2.72177 1.77796 3.62903 1.6792C4.33468 1.6792 5.44355 2.17302 5.84677 2.76561C6.25 3.25943 6.45161 4.34584 6.65323 5.13596C6.85484 6.02484 7.25806 7.11125 7.15726 7.90137C6.95565 9.08655 5.34274 9.58037 4.93952 10.4693C6.55242 14.1235 9.07258 16.889 12.5 18.6667C13.3065 18.1729 14.1129 16.7902 15.3226 16.7902C15.7258 16.7902 16.3306 16.9877 16.7339 17.0865C17.2379 17.1852 17.6411 17.3828 18.0444 17.5803C18.75 17.8766 20.0605 18.1729 20.4637 18.7655C20.8669 19.3581 21.1694 20.3457 21.0685 20.9383C20.7661 22.2222 18.6492 23.6049 17.4395 24Z"/>
    <path d="M12.6008 1.48147C18.5484 1.48147 23.4879 6.22217 23.4879 12.1481H25C25 5.43205 19.4557 0 12.6008 0V1.48147Z"/>
    <path d="M12.6008 9.18506V10.7653C13.4073 10.7653 14.0121 11.3579 14.0121 12.148H15.625C15.625 10.5678 14.3145 9.18506 12.6008 9.18506Z"/>
    <path d="M12.6008 6.12356C15.9274 6.12356 18.75 8.79021 18.75 12.1482H20.3629C20.3629 8.00009 16.9355 4.64209 12.7016 4.64209V6.12356H12.6008Z"/>
  </g>
</symbol>

<symbol id="email-icon" width="32" height="21" viewBox="0 0 32 21" xmlns="http://www.w3.org/2000/svg">
  <path d="M28 0H4C1.8 0 0 1.8 0 4V17C0 19.2 1.8 21 4 21H28C30.2 21 32 19.2 32 17V4C32 1.8 30.2 0 28 0ZM2 5.3L9 10.6L2 15.9V5.3ZM30 17C30 18.1 29.1 19 28 19H4C2.9 19 2 18.1 2 17L9.8 11.1L14.2 14.4C14.7 14.8 15.4 15 16 15C16.6 15 17.3 14.8 17.8 14.4L22.2 11.1L30 17ZM30 15.8L23 10.5L30 5.2V15.8ZM17.2 13.6C16.8 13.9 16.4 14 16 14C15.6 14 15.1 13.9 14.8 13.6L10.7 10.5L9.9 9.9L2 4C2 2.9 2.9 2 4 2H28C29.1 2 30 2.9 30 4L17.2 13.6Z"/>
</symbol>

</svg>
